<svg xmlns="http://www.w3.org/2000/svg" xmlns:xlink="http://www.w3.org/1999/xlink" width="17" height="27" version="1.1" viewBox="0 0 17 27"><title>BTC</title><desc>Created with Sketch.</desc><g id="Page-1" fill="none" fill-rule="evenodd" stroke="none" stroke-width="1"><g id="BTC" fill="#000"><path id="₿" d="M4.671875,20.0625 L4.671875,14.640625 L7.609375,14.640625 C9.734375,14.640625 10.890625,15.609375 10.890625,17.34375 C10.890625,19.09375 9.703125,20.0625 7.140625,20.0625 L4.671875,20.0625 Z M4.671875,6.609375 L7.375,6.609375 C9.09375,6.609375 10.109375,7.484375 10.109375,8.953125 C10.109375,10.515625 9.015625,11.375 6.828125,11.375 L4.671875,11.375 L4.671875,6.609375 Z M11.296875,12.609375 C13.59375,12.15625 15.046875,10.453125 15.046875,8.09375 C15.046875,5.265625 12.96875,3.4375 9.546875,3.15625 L9.546875,0.3125 L7.375,0.3125 L7.375,3.125 L5.65625,3.125 L5.65625,0.3125 L3.5,0.3125 L3.5,3.125 L0.265625,3.125 L0.265625,23.546875 L3.5,23.546875 L3.5,26.34375 L5.65625,26.34375 L5.65625,23.546875 L7.375,23.546875 L7.375,26.34375 L9.546875,26.34375 L9.546875,23.515625 C13.515625,23.265625 16.0625,21.0625 16.0625,17.78125 C16.0625,15.015625 14.109375,13 11.296875,12.796875 L11.296875,12.609375 Z"/></g></g></svg>